<?xml version="1.0" encoding="UTF-8" standalone="no"?>
<svg
   xmlns:dc="http://purl.org/dc/elements/1.1/"
   xmlns:cc="http://creativecommons.org/ns#"
   xmlns:rdf="http://www.w3.org/1999/02/22-rdf-syntax-ns#"
   xmlns:svg="http://www.w3.org/2000/svg"
   xmlns="http://www.w3.org/2000/svg"
   xmlns:sodipodi="http://sodipodi.sourceforge.net/DTD/sodipodi-0.dtd"
   xmlns:inkscape="http://www.inkscape.org/namespaces/inkscape"
   height="128"
   viewBox="0 0 96.000004 96.169084"
   width="128"
   version="1.1"
   id="svg8"
   sodipodi:docname="icon-ig.svg"
   inkscape:version="1.0.1 (3bc2e813f5, 2020-09-07)">
  <metadata
     id="metadata14">
    <rdf:RDF>
      <cc:Work
         rdf:about="">
        <dc:format>image/svg+xml</dc:format>
        <dc:type
           rdf:resource="http://purl.org/dc/dcmitype/StillImage" />
        <dc:title />
      </cc:Work>
    </rdf:RDF>
  </metadata>
  <defs
     id="defs12" />
  <sodipodi:namedview
     pagecolor="#ffffff"
     bordercolor="#666666"
     borderopacity="1"
     objecttolerance="10"
     gridtolerance="10"
     guidetolerance="10"
     inkscape:pageopacity="0"
     inkscape:pageshadow="2"
     inkscape:window-width="2560"
     inkscape:window-height="1373"
     id="namedview10"
     showgrid="false"
     inkscape:zoom="8.630137"
     inkscape:cx="51.419783"
     inkscape:cy="58.305403"
     inkscape:window-x="-9"
     inkscape:window-y="-9"
     inkscape:window-maximized="1"
     inkscape:current-layer="svg8"
     units="px"
     inkscape:snap-object-midpoints="true"
     inkscape:snap-page="true"
     inkscape:snap-bbox="true"
     inkscape:bbox-nodes="true"
     inkscape:document-rotation="0" />
  <g
     id="g21"
     transform="matrix(0.17889297,0,0,0.1788183,2.1208469,2.3288767)"
     class="iconPath">
    <path
       d="m 434.74229,182.06313 c -0.84026,-19.05794 -3.92216,-32.16009 -8.33698,-43.51329 -4.55441,-12.05113 -11.56121,-22.8405 -20.7412,-31.80974 -8.96925,-9.108832 -19.82978,-16.186788 -31.74133,-20.670042 -11.41888,-4.414827 -24.45261,-7.496722 -43.51054,-8.33699 -19.20026,-0.91143 -25.29563,-1.12218 -73.99284,-1.12218 -48.69721,0 -54.79258,0.21075 -73.92167,1.051018 -19.05793,0.840267 -32.16008,3.924899 -43.51054,8.33699 -12.05388,4.554416 -22.84324,11.561208 -31.81249,20.741204 -9.10883,8.96924 -16.184049,19.82977 -20.670038,31.74132 -4.414828,11.42162 -7.496722,24.45261 -8.33699,43.51054 -0.91143,19.20026 -1.122182,25.29562 -1.122182,73.99284 0,48.69721 0.210752,54.79258 1.051019,73.92168 0.840269,19.05792 3.924899,32.16008 8.339727,43.51327 4.554415,12.05114 11.629634,22.84051 20.738464,31.80976 8.96925,9.10882 19.82978,16.18678 31.74132,20.67003 11.42163,4.41483 24.45261,7.49673 43.51328,8.33699 19.12636,0.84301 25.22446,1.05102 73.92167,1.05102 48.69722,0 54.79259,-0.20801 73.92168,-1.05102 19.05794,-0.84026 32.16009,-3.92216 43.51054,-8.33699 24.10502,-9.31958 43.16295,-28.37751 52.48253,-52.47979 4.41209,-11.42162 7.49672,-24.45535 8.33699,-43.51327 0.84027,-19.1291 1.05102,-25.22447 1.05102,-73.92168 0,-48.69722 -0.0711,-54.79258 -0.91144,-73.92167 z m -32.29967,146.44198 c -0.77184,17.51699 -3.71414,26.97617 -6.16652,33.28227 -6.02694,15.6257 -18.42841,28.02718 -34.05412,34.05412 -6.3061,2.45237 -15.8337,5.39468 -33.28227,6.16378 -18.91834,0.84301 -24.5922,1.05103 -72.44914,1.05103 -47.85695,0 -53.60197,-0.20802 -72.45189,-1.05103 -17.51698,-0.7691 -26.97615,-3.71141 -33.28227,-6.16378 -7.7759,-2.87389 -14.85385,-7.4283 -20.59888,-13.38408 -5.95577,-5.81618 -10.51019,-12.82297 -13.38407,-20.59888 -2.45238,-6.30611 -5.39468,-15.83644 -6.16379,-33.28226 -0.843,-18.91835 -1.05102,-24.59494 -1.05102,-72.45189 0,-47.85696 0.20802,-53.60197 1.05102,-72.44915 0.76911,-17.51699 3.71141,-26.97616 6.16379,-33.28227 2.87388,-7.77863 7.4283,-14.85385 13.45523,-20.60162 5.81346,-5.95577 12.82025,-10.51019 20.59889,-13.38133 6.3061,-2.45238 15.83643,-5.39468 33.28227,-6.16652 18.91834,-0.84027 24.59493,-1.05102 72.44914,-1.05102 47.92811,0 53.60197,0.21075 72.45189,1.05102 17.51699,0.77184 26.97616,3.71414 33.28227,6.16652 7.7759,2.87114 14.85385,7.42556 20.59887,13.38133 5.95579,5.81619 10.5102,12.82299 13.38408,20.60162 2.45238,6.30611 5.39468,15.83371 6.16652,33.28227 0.84027,18.91835 1.05103,24.59219 1.05103,72.44915 0,47.85695 -0.21076,53.46238 -1.05103,72.38072 z m 0,0"
       id="path2"
       style="stroke-width:0.70068" />
    <path
       d="m 256.4194,163.84547 c -50.86768,0 -92.13932,41.26891 -92.13932,92.13933 0,50.87041 41.27164,92.13934 92.13932,92.13934 50.87042,0 92.13934,-41.26893 92.13934,-92.13934 0,-50.87042 -41.26892,-92.13933 -92.13934,-92.13933 z m 0,151.90782 c -33.00036,0 -59.7685,-26.7654 -59.7685,-59.76849 0,-33.00309 26.76814,-59.7685 59.7685,-59.7685 33.0031,0 59.7685,26.76541 59.7685,59.7685 0,33.00309 -26.7654,59.76849 -59.7685,59.76849 z m 0,0"
       id="path4"
       style="stroke-width:0.70068" />
    <path
       d="m 373.71477,160.20248 c 0,11.87871 -9.63161,21.51031 -21.51305,21.51031 -11.8787,0 -21.51031,-9.6316 -21.51031,-21.51031 0,-11.88144 9.63161,-21.51031 21.51031,-21.51031 11.88144,0 21.51305,9.62887 21.51305,21.51031 z m 0,0"
       id="path6"
       style="stroke-width:0.70068" />
  </g>
</svg>
