<?xml version="1.0" encoding="UTF-8" standalone="no"?>
<svg
   xmlns:dc="http://purl.org/dc/elements/1.1/"
   xmlns:cc="http://creativecommons.org/ns#"
   xmlns:rdf="http://www.w3.org/1999/02/22-rdf-syntax-ns#"
   xmlns:svg="http://www.w3.org/2000/svg"
   xmlns="http://www.w3.org/2000/svg"
   xmlns:sodipodi="http://sodipodi.sourceforge.net/DTD/sodipodi-0.dtd"
   xmlns:inkscape="http://www.inkscape.org/namespaces/inkscape"
   version="1.1"
   id="Layer_1"
   x="0px"
   y="0px"
   width="80"
   height="80"
   viewBox="0 0 80 80"
   xml:space="preserve"
   sodipodi:docname="logo3.svg"
   inkscape:version="1.0.1 (3bc2e813f5, 2020-09-07)"><metadata
   id="metadata46"><rdf:RDF><cc:Work
       rdf:about=""><dc:format>image/svg+xml</dc:format><dc:type
         rdf:resource="http://purl.org/dc/dcmitype/StillImage" /><dc:title></dc:title></cc:Work></rdf:RDF></metadata><defs
   id="defs44" /><sodipodi:namedview
   pagecolor="#ffffff"
   bordercolor="#666666"
   borderopacity="1"
   objecttolerance="10"
   gridtolerance="10"
   guidetolerance="10"
   inkscape:pageopacity="0"
   inkscape:pageshadow="2"
   inkscape:window-width="1920"
   inkscape:window-height="1013"
   id="namedview42"
   showgrid="false"
   inkscape:snap-object-midpoints="true"
   fit-margin-top="0"
   fit-margin-left="0"
   fit-margin-right="0"
   fit-margin-bottom="0"
   inkscape:zoom="6.0513454"
   inkscape:cx="64.847043"
   inkscape:cy="44.619286"
   inkscape:window-x="-9"
   inkscape:window-y="-9"
   inkscape:window-maximized="1"
   inkscape:current-layer="Layer_1" />
<style
   type="text/css"
   id="style29">
	.st0{fill:#EB654A;}
	.st1{fill:#FFFFFF;}
</style>
<g
   id="g37">
	<path
   class="st0"
   d="M 40,80 C 62.1,80 80,62.1 80,40 80,17.9 62.1,0 40,0 17.9,0 0,17.9 0,40 0,62.1 17.9,80 40,80"
   id="path31" />
	<path
   class="st1"
   d="m 34.6,44.5 c 0,0.8 -0.3,1.6 -0.8,2.1 -0.6,0.6 -1.4,1 -3,1 h -4.5 v -6.3 h 4.5 c 1.6,0 2.4,0.4 3,1 0.5,0.6 0.8,1.3 0.8,2.2 m -2,-9.6 c 0,0.6 -0.3,1.2 -0.7,1.7 -0.5,0.5 -1.1,0.8 -2.5,0.8 h -3.1 v -5 h 3.1 c 1.4,0 2,0.3 2.5,0.8 0.5,0.5 0.7,1.1 0.7,1.7 m 3,3.7 c 0.8,-0.8 1.5,-2.3 1.5,-3.9 0,-1.9 -0.9,-3.5 -2.1,-4.7 -1.1,-1 -2.6,-1.6 -5.2,-1.6 h -7.9 v 23.1 h 9 c 3,0 4.8,-0.8 6,-2.1 1.3,-1.3 2.1,-3 2.1,-5 0.1,-2.5 -1.4,-4.8 -3.4,-5.8"
   id="path33" />
	<path
   class="st1"
   d="m 56.1,44.7 c 0,1.4 -0.6,2.7 -1.5,3.6 -0.9,0.9 -2.1,1.4 -4.1,1.4 h -6.2 v -9.9 h 6.2 c 2,0 3.2,0.6 4.1,1.4 0.9,0.8 1.5,2.1 1.5,3.5 m -2.9,-8.1 c -0.7,0.7 -1.7,1.2 -3.4,1.2 h -5.5 v -7.5 h 5.5 c 1.8,0 2.7,0.5 3.4,1.2 0.6,0.7 1,1.6 1,2.5 0,1.1 -0.4,2 -1,2.6 m 0.9,1.8 c 1.3,-1 2.1,-2.6 2.1,-4.4 0,-1.6 -0.7,-3.1 -1.8,-4.1 -1,-1 -2.4,-1.6 -4.5,-1.6 h -7.6 v 23.1 h 8.3 c 2.4,0 4,-0.7 5.3,-1.8 1.4,-1.3 2.3,-3 2.3,-5.1 -0.1,-2.6 -1.8,-5 -4.1,-6.1"
   id="path35" />
</g>

</svg>
