<?xml version="1.0" encoding="UTF-8" standalone="no"?>
<svg
   xmlns:dc="http://purl.org/dc/elements/1.1/"
   xmlns:cc="http://creativecommons.org/ns#"
   xmlns:rdf="http://www.w3.org/1999/02/22-rdf-syntax-ns#"
   xmlns:svg="http://www.w3.org/2000/svg"
   xmlns="http://www.w3.org/2000/svg"
   xmlns:sodipodi="http://sodipodi.sourceforge.net/DTD/sodipodi-0.dtd"
   xmlns:inkscape="http://www.inkscape.org/namespaces/inkscape"
   version="1.1"
   id="Layer_1"
   x="0px"
   y="0px"
   viewBox="0 0 492 492"
   style="enable-background:new 0 0 492 492;"
   xml:space="preserve"
   sodipodi:docname="right-arrow.svg"
   inkscape:version="1.0.1 (3bc2e813f5, 2020-09-07)"><metadata
   id="metadata43"><rdf:RDF><cc:Work
       rdf:about=""><dc:format>image/svg+xml</dc:format><dc:type
         rdf:resource="http://purl.org/dc/dcmitype/StillImage" /><dc:title></dc:title></cc:Work></rdf:RDF></metadata><defs
   id="defs41" /><sodipodi:namedview
   pagecolor="#ffffff"
   bordercolor="#666666"
   borderopacity="1"
   objecttolerance="10"
   gridtolerance="10"
   guidetolerance="10"
   inkscape:pageopacity="0"
   inkscape:pageshadow="2"
   inkscape:window-width="1920"
   inkscape:window-height="1013"
   id="namedview39"
   showgrid="false"
   inkscape:zoom="0.74695122"
   inkscape:cx="408.47881"
   inkscape:cy="398.28373"
   inkscape:window-x="-9"
   inkscape:window-y="-9"
   inkscape:window-maximized="1"
   inkscape:current-layer="g4" />
<g
   id="g6"
   style="fill:#ffffff">
	<g
   id="g4"
   style="fill:#ffffff">
		<path
   d="m 27.655896,284.582 -0.768,-0.168 H 356.1119 l -103.496,103.724 c -5.068,5.064 -7.848,11.924 -7.848,19.124 0,7.2 2.78,14.012 7.848,19.088 l 16.104,16.112 c 5.064,5.064 11.812,7.864 19.008,7.864 7.2,0 13.952,-2.78 19.016,-7.844 L 484.15589,265.086 c 5.084,-5.084 7.864,-11.856 7.844,-19.06 0.02,-7.244 -2.76,-14.02 -7.844,-19.096 L 306.7439,49.517996 c -5.064,-5.06 -11.812,-7.844 -19.016,-7.844 -7.196,0 -13.944,2.788 -19.008,7.844 l -16.104,16.112 c -5.068,5.056 -7.848,11.808 -7.848,19.008 0,7.196 2.78,13.592 7.848,18.652004 l 104.664,104.304 H 27.287896 c -14.828,0 -27.28799979138,12.78 -27.28799979138,27.6 v 22.788 c 0,14.82 12.82799979138,26.6 27.65599979138,26.6 z"
   id="path2"
   style="fill:#ffffff" />
	</g>
</g>
<g
   id="g8">
</g>
<g
   id="g10">
</g>
<g
   id="g12">
</g>
<g
   id="g14">
</g>
<g
   id="g16">
</g>
<g
   id="g18">
</g>
<g
   id="g20">
</g>
<g
   id="g22">
</g>
<g
   id="g24">
</g>
<g
   id="g26">
</g>
<g
   id="g28">
</g>
<g
   id="g30">
</g>
<g
   id="g32">
</g>
<g
   id="g34">
</g>
<g
   id="g36">
</g>
</svg>
